<svg width="37" height="37" viewBox="0 0 37 37" fill="none" xmlns="http://www.w3.org/2000/svg">
<path d="M18.5884 35.0459C15.3512 35.0459 12.1867 34.0859 9.49501 32.2874C6.80336 30.4889 4.70547 27.9326 3.46664 24.9418C2.22781 21.9511 1.90368 18.6601 2.53523 15.485C3.16678 12.31 4.72565 9.39359 7.01471 7.10453C9.30377 4.81547 12.2202 3.2566 15.3952 2.62505C18.5702 1.9935 21.8612 2.31764 24.852 3.55647C27.8428 4.7953 30.3991 6.89318 32.1976 9.58483C33.9961 12.2765 34.9561 15.441 34.9561 18.6782C34.9561 21.3843 34.3013 23.9341 33.1374 26.1837L34.9561 35.0459L26.0939 33.2272C23.846 34.3894 21.2927 35.0459 18.5884 35.0459Z" stroke="white" stroke-width="3" stroke-linecap="round" stroke-linejoin="round"/>
</svg>
