<svg width="51" height="51" viewBox="0 0 51 51" fill="none" xmlns="http://www.w3.org/2000/svg">
<path d="M26.1206 37.835V38.9961L27.2689 38.8239C34.01 37.8127 38.9019 32.0784 38.9019 25.335C38.9019 17.9077 32.8291 11.835 25.4019 11.835C17.9746 11.835 11.9019 17.9077 11.9019 25.335C11.9019 32.0797 16.7937 37.6526 23.2146 38.6665L24.3706 38.849V37.6787V28.9287V27.9287H23.3706H21.2456V26.335H23.3706H24.3706V25.335V22.5225C24.3706 21.1616 24.7746 20.2279 25.3668 19.6358C25.9603 19.0423 26.8558 18.6787 28.0581 18.6787C28.694 18.6787 29.3443 18.75 29.8452 18.8242C29.8537 18.8254 29.8622 18.8267 29.8706 18.828V20.1162H29.3081C28.3203 20.1162 27.5083 20.42 26.9591 21.0378C26.4302 21.6328 26.2769 22.3726 26.2769 22.9912V25.335V26.335H27.2769H29.5254L29.2483 27.9287H27.1206H26.1206V28.9287V37.835ZM1.40186 25.335C1.40186 12.0801 12.147 1.33496 25.4019 1.33496C38.6567 1.33496 49.4019 12.0801 49.4019 25.335C49.4019 38.5898 38.6567 49.335 25.4019 49.335C12.147 49.335 1.40186 38.5898 1.40186 25.335Z" stroke="#1A1A1A" stroke-width="2"/>
</svg>
