<svg width="51" height="51" viewBox="0 0 51 51" fill="none" xmlns="http://www.w3.org/2000/svg">
<path d="M25.7822 37.6152V38.7764L26.9306 38.6042C33.6716 37.593 38.5635 31.8587 38.5635 25.1152C38.5635 17.688 32.4908 11.6152 25.0635 11.6152C17.6362 11.6152 11.5635 17.688 11.5635 25.1152C11.5635 31.86 16.4554 37.4329 22.8763 38.4467L24.0322 38.6293V37.459V28.709V27.709H23.0322H20.9072V26.1152H23.0322H24.0322V25.1152V22.3027C24.0322 20.9418 24.4363 20.0082 25.0284 19.4161C25.6219 18.8226 26.5174 18.459 27.7197 18.459C28.3557 18.459 29.0059 18.5302 29.5068 18.6044C29.5153 18.6057 29.5238 18.607 29.5322 18.6082V19.8965H28.9697C27.9819 19.8965 27.1699 20.2003 26.6208 20.8181C26.0919 21.4131 25.9385 22.1529 25.9385 22.7715V25.1152V26.1152H26.9385H29.1871L28.9099 27.709H26.7822H25.7822V28.709V37.6152ZM1.06348 25.1152C1.06348 11.8604 11.8086 1.11523 25.0635 1.11523C38.3183 1.11523 49.0635 11.8604 49.0635 25.1152C49.0635 38.3701 38.3183 49.1152 25.0635 49.1152C11.8086 49.1152 1.06348 38.3701 1.06348 25.1152Z" stroke="#D9D9D9" stroke-width="2"/>
</svg>
