<svg width="42" height="36" viewBox="0 0 42 36" fill="none" xmlns="http://www.w3.org/2000/svg">
<path d="M20.5938 34.6009L19.6226 35.572C19.7501 35.6998 19.9014 35.8011 20.0681 35.8702C20.2347 35.9394 20.4133 35.975 20.5938 35.975C20.7742 35.975 20.9528 35.9394 21.1194 35.8702C21.2861 35.8011 21.4374 35.6998 21.5649 35.572L20.5938 34.6009ZM20.5938 7.16862L19.6226 8.13972C19.7501 8.26746 19.9014 8.3688 20.0681 8.43795C20.2347 8.50709 20.4133 8.54269 20.5938 8.54269C20.7742 8.54269 20.9528 8.50709 21.1194 8.43795C21.2861 8.3688 21.4374 8.26746 21.5649 8.13972L20.5938 7.16862ZM21.5649 33.6298L5.20149 17.2692L3.26203 19.2087L19.6226 35.572L21.5649 33.6298ZM35.986 17.2692L19.6226 33.6298L21.5649 35.572L37.9255 19.2087L35.986 17.2692ZM16.9782 5.49251L19.6226 8.13972L21.5649 6.19752L18.9176 3.55304L16.9782 5.49251ZM21.5649 8.13972L24.2093 5.49251L22.2699 3.55304L19.6226 6.19752L21.5649 8.13972ZM30.0963 0.310547C27.161 0.310547 24.3465 1.47642 22.2699 3.55304L24.2093 5.49251C25.7715 3.93239 27.8885 3.05538 30.0963 3.05378V0.310547ZM38.4247 11.3822C38.4247 13.5905 37.5469 15.7083 35.9833 17.2692L37.9255 19.2087C40.0001 17.1322 41.1662 14.3175 41.168 11.3822H38.4247ZM41.168 11.3822C41.168 8.44583 40.0015 5.62971 37.9252 3.55336C35.8488 1.47702 33.0327 0.310547 30.0963 0.310547V3.05378C32.3051 3.05378 34.4235 3.93123 35.9854 5.49312C37.5473 7.05501 38.4247 9.17338 38.4247 11.3822H41.168ZM11.0912 3.05378C13.2995 3.05378 15.4173 3.93161 16.9782 5.49525L18.9176 3.55304C16.8412 1.47843 14.0265 0.312307 11.0912 0.310547V3.05378ZM2.76276 11.3822C2.76276 9.17338 3.64022 7.05501 5.20211 5.49312C6.76399 3.93123 8.88236 3.05378 11.0912 3.05378V0.310547C8.15481 0.310547 5.33869 1.47702 3.26235 3.55336C1.18601 5.62971 0.0195313 8.44583 0.0195312 11.3822H2.76276ZM5.20149 17.2692C3.64037 15.7075 2.76509 13.5904 2.76276 11.3822H0.0195312C0.0195312 14.3175 1.1854 17.132 3.26203 19.2087L5.20149 17.2692Z" fill="white"/>
</svg>
