<svg width="51" height="51" viewBox="0 0 51 51" fill="none" xmlns="http://www.w3.org/2000/svg">
<circle cx="25.549" cy="25.3351" r="24.049" stroke="#1A1A1A" stroke-width="2"/>
<path d="M25.5493 12.7568C22.1358 12.7568 21.7066 12.7726 20.3654 12.8323C19.0242 12.8952 18.1106 13.1059 17.3103 13.4172C16.4705 13.7322 15.7099 14.2276 15.0823 14.8685C14.4415 15.4961 13.9461 16.2566 13.6311 17.0965C13.3198 17.8952 13.1075 18.8103 13.0462 20.1468C12.9864 21.4911 12.9707 21.9188 12.9707 25.337C12.9707 28.7521 12.9864 29.1798 13.0462 30.521C13.1091 31.8606 13.3198 32.7741 13.6311 33.5744C13.9534 34.4015 14.3827 35.1027 15.0823 35.8024C15.7805 36.5021 16.4817 36.9329 17.3088 37.2537C18.1106 37.565 19.0226 37.7773 20.3622 37.8386C21.705 37.8983 22.1327 37.9141 25.5493 37.9141C28.966 37.9141 29.3921 37.8983 30.7349 37.8386C32.0729 37.7757 32.9896 37.565 33.7899 37.2537C34.6292 36.9385 35.3892 36.4431 36.0163 35.8024C36.716 35.1027 37.1452 34.4015 37.4676 33.5744C37.7773 32.7741 37.9896 31.8606 38.0525 30.521C38.1122 29.1798 38.1279 28.7521 38.1279 25.3354C38.1279 21.9188 38.1122 21.4911 38.0525 20.1483C37.9896 18.8103 37.7773 17.8952 37.4676 17.0965C37.1526 16.2566 36.6572 15.4961 36.0163 14.8685C35.3887 14.2276 34.6282 13.7322 33.7883 13.4172C32.9864 13.1059 32.0713 12.8936 30.7333 12.8323C29.3905 12.7726 28.9644 12.7568 25.5462 12.7568H25.5493ZM24.422 15.0241H25.5509C28.9094 15.0241 29.3072 15.0351 30.6326 15.0965C31.8591 15.1515 32.5257 15.3575 32.9691 15.5288C33.5556 15.7568 33.9754 16.0304 34.4157 16.4707C34.8559 16.9109 35.1279 17.3292 35.3559 17.9172C35.5289 18.359 35.7333 19.0257 35.7883 20.2521C35.8496 21.5776 35.8622 21.9754 35.8622 25.3323C35.8622 28.6892 35.8496 29.0886 35.7883 30.4141C35.7333 31.6405 35.5273 32.3056 35.3559 32.749C35.1528 33.2944 34.8311 33.7879 34.4141 34.1939C33.9738 34.6342 33.5556 34.9062 32.9676 35.1342C32.5273 35.3071 31.8606 35.5115 30.6326 35.5682C29.3072 35.6279 28.9094 35.6421 25.5509 35.6421C22.1924 35.6421 21.793 35.6279 20.4676 35.5682C19.2411 35.5115 18.576 35.3071 18.1327 35.1342C17.5868 34.9318 17.0927 34.6106 16.6861 34.1939C16.2683 33.7877 15.9461 33.2935 15.7427 32.7474C15.5713 32.3056 15.3654 31.6389 15.3103 30.4125C15.2506 29.087 15.238 28.6892 15.238 25.3292C15.238 21.9691 15.2506 21.5744 15.3103 20.249C15.3669 19.0226 15.5713 18.3559 15.7443 17.9125C15.9723 17.326 16.2459 16.9062 16.6861 16.466C17.1264 16.0257 17.5446 15.7537 18.1327 15.5257C18.576 15.3527 19.2411 15.1483 20.4676 15.0917C21.6279 15.0383 22.0776 15.0226 24.422 15.021V15.0241ZM32.2647 17.1122C32.0665 17.1122 31.8702 17.1512 31.6871 17.2271C31.504 17.3029 31.3376 17.4141 31.1974 17.5543C31.0572 17.6944 30.946 17.8608 30.8702 18.044C30.7943 18.2271 30.7553 18.4234 30.7553 18.6216C30.7553 18.8198 30.7943 19.0161 30.8702 19.1992C30.946 19.3824 31.0572 19.5488 31.1974 19.6889C31.3376 19.8291 31.504 19.9403 31.6871 20.0161C31.8702 20.092 32.0665 20.131 32.2647 20.131C32.6651 20.131 33.049 19.972 33.3321 19.6889C33.6151 19.4059 33.7742 19.0219 33.7742 18.6216C33.7742 18.2213 33.6151 17.8374 33.3321 17.5543C33.049 17.2712 32.6651 17.1122 32.2647 17.1122ZM25.5509 18.8763C24.6941 18.863 23.8432 19.0202 23.0477 19.3388C22.2522 19.6575 21.5281 20.1312 20.9175 20.7323C20.3068 21.3335 19.8219 22.0502 19.4909 22.8406C19.1599 23.631 18.9894 24.4793 18.9894 25.3362C18.9894 26.1931 19.1599 27.0415 19.4909 27.8319C19.8219 28.6223 20.3068 29.3389 20.9175 29.9401C21.5281 30.5413 22.2522 31.015 23.0477 31.3337C23.8432 31.6523 24.6941 31.8095 25.5509 31.7961C27.2467 31.7697 28.8641 31.0774 30.054 29.8689C31.2439 28.6603 31.9108 27.0323 31.9108 25.3362C31.9108 23.6402 31.2439 22.0122 30.054 20.8036C28.8641 19.595 27.2467 18.9028 25.5509 18.8763ZM25.5509 21.1421C26.1016 21.1421 26.6469 21.2505 27.1556 21.4613C27.6644 21.672 28.1267 21.9809 28.5161 22.3703C28.9055 22.7597 29.2143 23.2219 29.4251 23.7307C29.6358 24.2395 29.7443 24.7848 29.7443 25.3354C29.7443 25.8861 29.6358 26.4314 29.4251 26.9402C29.2143 27.449 28.9055 27.9112 28.5161 28.3006C28.1267 28.69 27.6644 28.9989 27.1556 29.2096C26.6469 29.4204 26.1016 29.5288 25.5509 29.5288C24.4387 29.5288 23.3721 29.087 22.5857 28.3006C21.7993 27.5142 21.3575 26.4476 21.3575 25.3354C21.3575 24.2233 21.7993 23.1567 22.5857 22.3703C23.3721 21.5839 24.4387 21.1421 25.5509 21.1421Z" fill="#1A1A1A"/>
</svg>
