<svg width="51" height="51" viewBox="0 0 51 51" fill="none" xmlns="http://www.w3.org/2000/svg">
<circle cx="25.0637" cy="25.0563" r="24.049" stroke="#D9D9D9" stroke-width="2"/>
<path d="M25.064 12.4778C21.6504 12.4778 21.2212 12.4935 19.88 12.5533C18.5388 12.6161 17.6253 12.8268 16.825 13.1382C15.9851 13.4531 15.2246 13.9485 14.597 14.5894C13.9561 15.217 13.4607 15.9775 13.1457 16.8174C12.8344 17.6161 12.6221 18.5312 12.5608 19.8677C12.5011 21.2121 12.4854 21.6397 12.4854 25.058C12.4854 28.4731 12.5011 28.9007 12.5608 30.2419C12.6237 31.5816 12.8344 32.4951 13.1457 33.2954C13.4681 34.1224 13.8973 34.8237 14.597 35.5234C15.2951 36.2231 15.9964 36.6539 16.8234 36.9746C17.6253 37.286 18.5372 37.4982 19.8769 37.5595C21.2196 37.6193 21.6473 37.635 25.064 37.635C28.4806 37.635 28.9067 37.6193 30.2495 37.5595C31.5875 37.4966 32.5042 37.286 33.3045 36.9746C34.1438 36.6595 34.9038 36.1641 35.5309 35.5234C36.2306 34.8237 36.6599 34.1224 36.9822 33.2954C37.2919 32.4951 37.5042 31.5816 37.5671 30.2419C37.6269 28.9007 37.6426 28.4731 37.6426 25.0564C37.6426 21.6397 37.6269 21.2121 37.5671 19.8693C37.5042 18.5312 37.2919 17.6161 36.9822 16.8174C36.6672 15.9775 36.1718 15.217 35.5309 14.5894C34.9034 13.9485 34.1428 13.4531 33.303 13.1382C32.5011 12.8268 31.586 12.6146 30.2479 12.5533C28.9052 12.4935 28.4791 12.4778 25.0608 12.4778H25.064ZM23.9366 14.7451H25.0655C28.424 14.7451 28.8218 14.7561 30.1473 14.8174C31.3737 14.8724 32.0404 15.0784 32.4838 15.2498C33.0703 15.4778 33.4901 15.7514 33.9303 16.1916C34.3706 16.6319 34.6426 17.0501 34.8706 17.6382C35.0435 18.08 35.2479 18.7466 35.303 19.9731C35.3643 21.2985 35.3769 21.6963 35.3769 25.0533C35.3769 28.4102 35.3643 28.8095 35.303 30.135C35.2479 31.3614 35.042 32.0265 34.8706 32.4699C34.6675 33.0154 34.3458 33.5089 33.9287 33.9149C33.4885 34.3551 33.0703 34.6271 32.4822 34.8551C32.042 35.0281 31.3753 35.2325 30.1473 35.2891C28.8218 35.3488 28.424 35.363 25.0655 35.363C21.707 35.363 21.3077 35.3488 19.9822 35.2891C18.7558 35.2325 18.0907 35.0281 17.6473 34.8551C17.1014 34.6527 16.6074 34.3316 16.2008 33.9149C15.783 33.5086 15.4607 33.0145 15.2574 32.4683C15.086 32.0265 14.88 31.3599 14.825 30.1334C14.7652 28.808 14.7526 28.4102 14.7526 25.0501C14.7526 21.69 14.7652 21.2954 14.825 19.9699C14.8816 18.7435 15.086 18.0768 15.2589 17.6334C15.4869 17.047 15.7605 16.6272 16.2008 16.1869C16.641 15.7467 17.0592 15.4746 17.6473 15.2467C18.0907 15.0737 18.7558 14.8693 19.9822 14.8127C21.1426 14.7592 21.5923 14.7435 23.9366 14.7419V14.7451ZM31.7794 16.8331C31.5812 16.8331 31.3849 16.8722 31.2017 16.948C31.0186 17.0239 30.8522 17.1351 30.712 17.2752C30.5719 17.4154 30.4607 17.5818 30.3848 17.7649C30.309 17.9481 30.2699 18.1443 30.2699 18.3426C30.2699 18.5408 30.309 18.7371 30.3848 18.9202C30.4607 19.1033 30.5719 19.2697 30.712 19.4099C30.8522 19.5501 31.0186 19.6612 31.2017 19.7371C31.3849 19.813 31.5812 19.852 31.7794 19.852C32.1797 19.852 32.5636 19.693 32.8467 19.4099C33.1298 19.1268 33.2888 18.7429 33.2888 18.3426C33.2888 17.9422 33.1298 17.5583 32.8467 17.2752C32.5636 16.9922 32.1797 16.8331 31.7794 16.8331ZM25.0655 18.5973C24.2087 18.5839 23.3578 18.7411 22.5624 19.0598C21.7669 19.3784 21.0428 19.8521 20.4321 20.4533C19.8215 21.0545 19.3366 21.7711 19.0055 22.5615C18.6745 23.3519 18.5041 24.2003 18.5041 25.0572C18.5041 25.9141 18.6745 26.7624 19.0055 27.5528C19.3366 28.3432 19.8215 29.0599 20.4321 29.6611C21.0428 30.2623 21.7669 30.736 22.5624 31.0546C23.3578 31.3732 24.2087 31.5305 25.0655 31.5171C26.7614 31.4906 28.3788 30.7984 29.5686 29.5898C30.7585 28.3812 31.4254 26.7532 31.4254 25.0572C31.4254 23.3612 30.7585 21.7331 29.5686 20.5246C28.3788 19.316 26.7614 18.6237 25.0655 18.5973ZM25.0655 20.863C25.6162 20.863 26.1615 20.9715 26.6703 21.1822C27.179 21.3929 27.6413 21.7018 28.0307 22.0912C28.4201 22.4806 28.729 22.9429 28.9397 23.4517C29.1505 23.9604 29.2589 24.5057 29.2589 25.0564C29.2589 25.6071 29.1505 26.1524 28.9397 26.6611C28.729 27.1699 28.4201 27.6322 28.0307 28.0216C27.6413 28.411 27.179 28.7199 26.6703 28.9306C26.1615 29.1413 25.6162 29.2498 25.0655 29.2498C23.9534 29.2498 22.8868 28.808 22.1004 28.0216C21.3139 27.2352 20.8721 26.1686 20.8721 25.0564C20.8721 23.9442 21.3139 22.8776 22.1004 22.0912C22.8868 21.3048 23.9534 20.863 25.0655 20.863Z" fill="#D9D9D9"/>
</svg>
