<svg width="224" height="224" viewBox="0 0 224 224" fill="none" xmlns="http://www.w3.org/2000/svg">
<path d="M24.2734 162.092L24.2734 186.301L0.0275883 186.301L0.0275882 199.578L24.2734 199.578L24.2734 223.787L37.5686 223.787L37.5686 199.578L61.8103 199.578L61.8103 186.301L37.5686 186.301L37.5686 162.092L24.2734 162.092Z" fill="#FBBB32"/>
<path d="M24.2734 81.2836L24.2734 105.492L0.0275883 105.492L0.0275882 118.769L24.2734 118.769L24.2734 142.982L37.5686 142.982L37.5686 118.769L61.8103 118.769L61.8103 105.492L37.5686 105.492L37.5686 81.2836L24.2734 81.2836Z" fill="#FBBB32"/>
<path d="M24.2734 0.479251L24.2734 24.688L0.0275883 24.688L0.0275882 37.9651L24.2734 37.9651L24.2734 62.1738L37.5686 62.1738L37.5686 37.9651L61.8103 37.9651L61.8103 24.688L37.5686 24.688L37.5686 0.479252L24.2734 0.479251Z" fill="#FBBB32"/>
<path d="M142.729 186.301L118.483 186.301L118.483 162.092L105.188 162.092L105.188 186.301L80.946 186.301L80.946 199.578L105.188 199.578L105.188 223.787L118.483 223.787L118.483 199.578L142.729 199.578L142.729 186.301Z" fill="#FBBB32"/>
<path d="M223.643 186.301L199.402 186.301L199.402 162.092L186.106 162.092L186.106 186.301L161.861 186.301L161.861 199.578L186.106 199.578L186.106 223.787L199.402 223.787L199.402 199.578L223.643 199.578L223.643 186.301Z" fill="#FBBB32"/>
<path d="M142.729 105.496L118.483 105.496L118.483 81.2836L105.188 81.2836L105.188 105.496L80.946 105.496L80.946 118.769L105.188 118.769L105.188 142.982L118.483 142.982L118.483 118.769L142.729 118.769L142.729 105.496Z" fill="#FBBB32"/>
<path d="M223.643 105.496L199.402 105.496L199.402 81.2836L186.106 81.2836L186.106 105.496L161.861 105.496L161.861 118.769L186.106 118.769L186.106 142.982L199.402 142.982L199.402 118.769L223.643 118.769L223.643 105.496Z" fill="#FBBB32"/>
<path d="M142.729 24.688L118.483 24.688L118.483 0.479252L105.188 0.479251L105.188 24.688L80.946 24.688L80.946 37.9651L105.188 37.9651L105.188 62.1738L118.483 62.1738L118.483 37.9651L142.729 37.9651L142.729 24.688Z" fill="#FBBB32"/>
<path d="M223.643 24.688L199.402 24.688L199.402 0.479252L186.106 0.479251L186.106 24.688L161.861 24.688L161.861 37.9651L186.106 37.9651L186.106 62.1738L199.402 62.1738L199.402 37.9651L223.643 37.9651L223.643 24.688Z" fill="#FBBB32"/>
</svg>
