<svg width="51" height="51" viewBox="0 0 51 51" fill="none" xmlns="http://www.w3.org/2000/svg">
<path d="M35.0257 15.9706L35.0097 15.966L34.9935 15.962C34.4243 15.8197 33.4872 15.7285 32.487 15.6633C31.4578 15.5961 30.2714 15.5518 29.1523 15.5223C28.0317 15.4928 26.9711 15.4781 26.1911 15.4707C25.8009 15.4671 25.4805 15.4652 25.2574 15.4643C25.1459 15.4638 25.0586 15.4636 24.9991 15.4635L24.9311 15.4634L24.9135 15.4634L24.9089 15.4634H24.9077H24.9074C24.9073 15.4634 24.9072 15.4634 24.9072 16.4634C24.9072 15.4634 24.9072 15.4634 24.9071 15.4634H24.9067H24.9056L24.9011 15.4634L24.8838 15.4634L24.817 15.4635C24.7586 15.4636 24.6729 15.4638 24.5633 15.4643C24.3442 15.4652 24.0293 15.4671 23.6452 15.4708C22.8774 15.4781 21.8314 15.4928 20.7205 15.5223C19.6111 15.5518 18.4299 15.5961 17.3939 15.6632C16.381 15.7288 15.4358 15.8199 14.8386 15.9577L14.8135 15.9635L14.7888 15.9706C13.3628 16.378 12.3219 17.4189 11.9144 18.8449L11.8972 18.9054L11.8876 18.9676C11.721 20.0503 11.642 21.6292 11.603 22.8975C11.5832 23.5401 11.5734 24.1179 11.5684 24.535C11.566 24.7438 11.5647 24.9126 11.5641 25.0296L11.5636 25.1647L11.5635 25.2004L11.5635 25.2098L11.5635 25.2123V25.213V25.2133C11.5635 25.2133 11.5635 25.2134 12.5635 25.2134C11.5635 25.2134 11.5635 25.2135 11.5635 25.2135V25.2138V25.2146L11.5635 25.2172L11.5635 25.2269L11.5636 25.2633C11.5637 25.2949 11.564 25.3409 11.5644 25.3999C11.5654 25.5178 11.5672 25.6877 11.571 25.8976C11.5784 26.3171 11.5933 26.8981 11.6231 27.5446C11.6817 28.8131 11.8009 30.4186 12.0578 31.532L12.0636 31.5571L12.0707 31.5819C12.4781 33.0078 13.519 34.0487 14.945 34.4562L14.961 34.4607L14.9772 34.4648C15.5464 34.6071 16.4835 34.6983 17.4837 34.7635C18.513 34.8306 19.6993 34.875 20.8184 34.9044C21.939 34.9339 22.9996 34.9487 23.7796 34.956C24.1698 34.9597 24.4902 34.9615 24.7133 34.9625C24.8248 34.9629 24.9121 34.9632 24.9716 34.9633L25.0396 34.9634L25.0572 34.9634H25.0618H25.063H25.0633C25.0634 34.9634 25.0635 34.9634 25.0635 33.9634C25.0635 34.9634 25.0635 34.9634 25.0636 34.9634H25.064H25.0651H25.0696L25.0869 34.9634L25.1537 34.9633C25.2121 34.9632 25.2978 34.9629 25.4073 34.9625C25.6265 34.9615 25.9414 34.9597 26.3255 34.956C27.0933 34.9487 28.1393 34.9339 29.2502 34.9044C30.3596 34.875 31.5408 34.8306 32.5768 34.7635C33.5897 34.698 34.5349 34.6068 35.1321 34.469L35.1572 34.4632L35.1819 34.4562C36.6079 34.0487 37.6488 33.0078 38.0563 31.5819L38.0633 31.5571L38.0691 31.532C38.3261 30.4186 38.4453 28.8131 38.5038 27.5446C38.5337 26.8981 38.5486 26.3171 38.556 25.8976C38.5597 25.6877 38.5616 25.5178 38.5625 25.3999C38.563 25.3409 38.5632 25.2949 38.5634 25.2633L38.5635 25.2269L38.5635 25.2172L38.5635 25.2146V25.2138V25.2135C38.5635 25.2134 38.5635 25.2134 37.5635 25.2134C38.5635 25.2134 38.5635 25.2133 38.5635 25.2132V25.2129V25.212L38.5635 25.2092L38.5635 25.1992L38.5633 25.1622C38.5631 25.1302 38.5628 25.0837 38.5622 25.0242C38.5609 24.9053 38.5584 24.7343 38.5534 24.5232C38.5435 24.1015 38.5235 23.5172 38.4835 22.8668C38.4056 21.6007 38.2462 19.9756 37.8972 18.835C37.4878 17.4142 36.4484 16.3771 35.0257 15.9706ZM23.5635 27.2402V23.1866L27.1104 25.2134L23.5635 27.2402ZM1.06348 25.2134C1.06348 11.9585 11.8086 1.21338 25.0635 1.21338C38.3183 1.21338 49.0635 11.9585 49.0635 25.2134C49.0635 38.4682 38.3183 49.2134 25.0635 49.2134C11.8086 49.2134 1.06348 38.4682 1.06348 25.2134Z" stroke="#D9D9D9" stroke-width="2"/>
</svg>
