<svg width="51" height="51" viewBox="0 0 51 51" fill="none" xmlns="http://www.w3.org/2000/svg">
<path d="M35.4622 16.0922L35.4462 16.0876L35.4301 16.0836C34.8608 15.9413 33.9237 15.8501 32.9235 15.7848C31.8943 15.7177 30.7079 15.6734 29.5888 15.6439C28.4682 15.6144 27.4076 15.5997 26.6276 15.5923C26.2374 15.5887 25.917 15.5868 25.6939 15.5859C25.5824 15.5854 25.4951 15.5852 25.4356 15.5851L25.3676 15.585L25.35 15.585L25.3454 15.585H25.3442H25.3439C25.3438 15.585 25.3437 15.585 25.3437 16.585C25.3437 15.585 25.3437 15.585 25.3436 15.585H25.3433H25.3421L25.3376 15.585L25.3203 15.585L25.2535 15.5851C25.1951 15.5852 25.1095 15.5854 24.9999 15.5859C24.7807 15.5868 24.4658 15.5887 24.0817 15.5923C23.3139 15.5997 22.2679 15.6144 21.1571 15.6439C20.0476 15.6734 18.8665 15.7177 17.8304 15.7848C16.8175 15.8504 15.8723 15.9415 15.2752 16.0793L15.2501 16.0851L15.2253 16.0922C13.7993 16.4996 12.7584 17.5405 12.351 18.9665L12.3337 19.027L12.3241 19.0892C12.1576 20.1719 12.0786 21.7508 12.0395 23.0191C12.0198 23.6617 12.0099 24.2395 12.005 24.6566C12.0025 24.8653 12.0012 25.0341 12.0006 25.1511L12.0001 25.2863L12 25.322L12 25.3314L12 25.3339V25.3346V25.3348C12 25.3349 12 25.335 13 25.335C12 25.335 12 25.335 12 25.3351V25.3354V25.3362L12 25.3388L12 25.3485L12.0001 25.3849C12.0002 25.4164 12.0005 25.4625 12.0009 25.5215C12.0019 25.6394 12.0038 25.8093 12.0075 26.0192C12.0149 26.4387 12.0298 27.0197 12.0597 27.6662C12.1182 28.9347 12.2374 30.5402 12.4944 31.6536L12.5002 31.6787L12.5072 31.7034C12.9146 33.1294 13.9556 34.1703 15.3815 34.5777L15.3975 34.5823L15.4137 34.5864C15.9829 34.7287 16.92 34.8199 17.9203 34.8851C18.9495 34.9522 20.1358 34.9966 21.2549 35.026C22.3755 35.0555 23.4362 35.0702 24.2162 35.0776C24.6063 35.0813 24.9267 35.0831 25.1498 35.084C25.2613 35.0845 25.3486 35.0847 25.4081 35.0848L25.4761 35.0849L25.4937 35.085H25.4983H25.4995H25.4999C25.4999 35.085 25.5 35.085 25.5 34.085C25.5 35.085 25.5001 35.085 25.5001 35.085H25.5005H25.5017H25.5061L25.5234 35.0849L25.5902 35.0848C25.6486 35.0847 25.7343 35.0845 25.8439 35.084C26.063 35.0831 26.3779 35.0813 26.762 35.0776C27.5299 35.0702 28.5758 35.0555 29.6867 35.026C30.7961 34.9966 31.9773 34.9522 33.0133 34.8851C34.0262 34.8195 34.9714 34.7284 35.5686 34.5906L35.5937 34.5848L35.6185 34.5777C37.0444 34.1703 38.0854 33.1294 38.4928 31.7034L38.4999 31.6787L38.5057 31.6536C38.7626 30.5401 38.8818 28.9347 38.9404 27.6662C38.9702 27.0197 38.9851 26.4386 38.9925 26.0192C38.9962 25.8093 38.9981 25.6394 38.9991 25.5214C38.9995 25.4625 38.9998 25.4164 38.9999 25.3849L39 25.3485L39 25.3388L39 25.3362V25.3354V25.3351C39 25.335 39 25.335 38 25.335C39 25.335 39 25.3349 39 25.3348V25.3345V25.3336L39 25.3308L39 25.3208L38.9998 25.2838C38.9997 25.2518 38.9994 25.2053 38.9987 25.1458C38.9975 25.0269 38.995 24.8559 38.99 24.6448C38.98 24.2231 38.96 23.6388 38.92 22.9884C38.8421 21.7223 38.6828 20.0972 38.3337 18.9566C37.9243 17.5357 36.8849 16.4987 35.4622 16.0922ZM24 27.3618V23.3081L27.5469 25.335L24 27.3618ZM1.5 25.335C1.5 12.0801 12.2452 1.33496 25.5 1.33496C38.7548 1.33496 49.5 12.0801 49.5 25.335C49.5 38.5898 38.7548 49.335 25.5 49.335C12.2452 49.335 1.5 38.5898 1.5 25.335Z" stroke="#1A1A1A" stroke-width="2"/>
</svg>
